<svg width="38" height="39" viewBox="0 0 38 39" fill="none" xmlns="http://www.w3.org/2000/svg">
<path d="M11.0832 14.8707L17.0207 19.6207C17.5824 20.0704 18.2804 20.3154 18.9999 20.3154C19.7194 20.3154 20.4174 20.0704 20.979 19.6207L26.9165 14.8707M33.2499 27.5374V11.704C33.2499 10.8642 32.9162 10.0587 32.3224 9.46485C31.7285 8.87098 30.9231 8.53735 30.0832 8.53735H7.91654C7.07669 8.53735 6.27124 8.87098 5.67737 9.46485C5.08351 10.0587 4.74988 10.8642 4.74988 11.704V27.5374C4.74988 28.3772 5.08351 29.1827 5.67737 29.7765C6.27124 30.3704 7.07669 30.704 7.91654 30.704H30.0832C30.9231 30.704 31.7285 30.3704 32.3224 29.7765C32.9162 29.1827 33.2499 28.3772 33.2499 27.5374Z" stroke="black" stroke-width="2.375" stroke-linecap="round" stroke-linejoin="round"/>
</svg>
