<svg width="26" height="26" viewBox="0 0 26 26" fill="none" xmlns="http://www.w3.org/2000/svg">
<path fill-rule="evenodd" clip-rule="evenodd" d="M13 26C16.4478 26 19.7544 24.6304 22.1924 22.1924C24.6304 19.7544 26 16.4478 26 13C26 9.55219 24.6304 6.24558 22.1924 3.80761C19.7544 1.36964 16.4478 0 13 0C9.55219 0 6.24558 1.36964 3.80761 3.80761C1.36964 6.24558 0 9.55219 0 13C0 16.4478 1.36964 19.7544 3.80761 22.1924C6.24558 24.6304 9.55219 26 13 26ZM14.625 8.125C14.625 8.55598 14.4538 8.9693 14.149 9.27405C13.8443 9.57879 13.431 9.75 13 9.75C12.569 9.75 12.1557 9.57879 11.851 9.27405C11.5462 8.9693 11.375 8.55598 11.375 8.125C11.375 7.69402 11.5462 7.2807 11.851 6.97595C12.1557 6.67121 12.569 6.5 13 6.5C13.431 6.5 13.8443 6.67121 14.149 6.97595C14.4538 7.2807 14.625 7.69402 14.625 8.125ZM11.375 11.375C11.0518 11.375 10.7418 11.5034 10.5132 11.732C10.2847 11.9605 10.1562 12.2705 10.1562 12.5938C10.1562 12.917 10.2847 13.227 10.5132 13.4555C10.7418 13.6841 11.0518 13.8125 11.375 13.8125H11.7812V17.0625H10.1562C9.83302 17.0625 9.52302 17.1909 9.29446 17.4195C9.0659 17.648 8.9375 17.958 8.9375 18.2812C8.9375 18.6045 9.0659 18.9145 9.29446 19.143C9.52302 19.3716 9.83302 19.5 10.1562 19.5H15.8438C16.167 19.5 16.477 19.3716 16.7055 19.143C16.9341 18.9145 17.0625 18.6045 17.0625 18.2812C17.0625 17.958 16.9341 17.648 16.7055 17.4195C16.477 17.1909 16.167 17.0625 15.8438 17.0625H14.2188V11.375H11.375Z" fill="#0095FF"/>
</svg>
