<svg width="31" height="31" viewBox="0 0 31 31" fill="none" xmlns="http://www.w3.org/2000/svg">
<path d="M28.0938 18.4061C28.0962 17.1022 27.7678 15.819 27.1396 14.6764C27.2203 14.557 27.2891 14.4297 27.3459 14.2948C27.49 13.9502 27.5414 13.5739 27.4951 13.2033C27.4488 12.8327 27.3063 12.4807 27.0818 12.1822C26.8573 11.8836 26.5587 11.649 26.2155 11.5017C25.8723 11.3543 25.4966 11.2992 25.1255 11.342C25.2883 11.0139 25.4174 10.6716 25.513 10.3151L26.2241 7.67336C26.6112 6.44284 26.5319 5.11287 26.0011 3.93714C25.4703 2.76142 24.5253 1.82222 23.3463 1.29873C22.1673 0.775226 20.8369 0.704058 19.6088 1.0988C18.3807 1.49354 17.3409 2.32656 16.6877 3.43895C16.0896 2.61441 15.217 2.03019 14.2268 1.79124C13.2365 1.55229 12.1935 1.67428 11.2852 2.13529C10.3768 2.5963 9.66261 3.36611 9.27087 4.30643C8.87914 5.24675 8.83555 6.29594 9.14794 7.26551H6.92853C3.09422 7.26551 1.58878 12.2381 4.77888 14.3645L6.65825 15.6181L5.34753 20.7602C5.18368 21.3807 5.16575 22.0307 5.29517 22.6593C5.42459 23.2879 5.69783 23.878 6.09347 24.3833C6.61045 25.0497 7.3159 25.5452 8.11816 25.8055V29.0624C8.11816 29.3193 8.22022 29.5657 8.4019 29.7474C8.58357 29.9291 8.82998 30.0311 9.08691 30.0311H27.125C27.382 30.0311 27.6284 29.9291 27.81 29.7474C27.9917 29.5657 28.0938 29.3193 28.0938 29.0624V18.4061ZM14.5313 26.0108H17.1663C17.7274 26.0109 18.2662 25.7907 18.6666 25.3975C19.067 25.0044 19.2971 24.4697 19.3072 23.9086C19.3072 23.6216 19.2505 23.3373 19.1404 23.0723C19.0302 22.8072 18.8688 22.5665 18.6654 22.3639C18.462 22.1614 18.2205 22.001 17.9549 21.8921C17.6894 21.7831 17.4049 21.7277 17.1178 21.7289H14.5313V19.0562C14.5313 18.8967 14.492 18.7397 14.4168 18.5991C14.3416 18.4585 14.2328 18.3387 14.1002 18.2502L5.85322 12.7525C4.25866 11.6888 5.01138 9.20301 6.92853 9.20301H9.67784L9.91034 10.0652C10.132 10.89 10.5826 11.6352 11.2101 12.2147C11.8375 12.7941 12.6162 13.1841 13.456 13.3396C14.002 13.4351 14.5619 13.417 15.1007 13.2863C15.6394 13.1556 16.1454 12.9152 16.587 12.5801C16.6406 12.5891 16.6955 12.5936 16.7517 12.5936H20.3438C20.7151 12.5943 21.0768 12.6279 21.4288 12.6944L18.9972 13.6302C18.5325 13.8107 18.1454 14.1478 17.9026 14.5832C17.6598 15.0186 17.5766 15.5251 17.6673 16.0153C17.7579 16.5056 18.0169 16.9488 18.3994 17.2685C18.7819 17.5882 19.264 17.7645 19.7625 17.7668C20.028 17.7668 20.2905 17.7174 20.5375 17.6215L25.4966 15.713C25.918 16.5171 26.1563 17.4345 26.1563 18.4061V28.0936H14.5313V26.0108ZM18.0236 10.6561C18.0604 10.5606 18.0943 10.4637 18.1253 10.3655C18.3791 9.55072 18.3963 8.6806 18.1747 7.85645L17.7407 6.28611L17.9732 5.42004L17.9791 5.39679C18.0734 4.95797 18.256 4.5429 18.5156 4.17677C18.7753 3.81064 19.1066 3.50109 19.4895 3.26689C19.8724 3.0327 20.2989 2.87876 20.7431 2.8144C21.1873 2.75005 21.64 2.77663 22.0736 2.89253C22.5073 3.00842 22.9128 3.21122 23.2657 3.48862C23.6186 3.76601 23.9114 4.11221 24.1264 4.50621C24.3414 4.90021 24.4741 5.3338 24.5165 5.78064C24.5588 6.22749 24.51 6.67829 24.3728 7.10567L24.366 7.12698L23.6424 9.81526C23.5144 10.2898 23.2902 10.733 22.9836 11.1173C22.1371 10.8114 21.2438 10.6554 20.3438 10.6561H18.0236Z" fill="#3A7C2B"/>
</svg>
