<svg width="32" height="32" viewBox="0 0 32 32" fill="none" xmlns="http://www.w3.org/2000/svg">
<path d="M16 2L4 6V18C4 24.6281 9.37187 30 16 30C22.6281 30 28 24.6281 28 18V6L16 2ZM11.5 7.6875C11.5 13.0719 13.3844 17.5 8 17.5C2.61562 17.5 20 27.3844 20 22L22 19L23 16.5L25.75 7.6875H11.5Z" fill="#F58E44"/>
<path d="M11.9211 14.1867C11.8168 14.082 11.6929 13.9989 11.5564 13.9421C11.4199 13.8854 11.2736 13.8562 11.1258 13.8562C10.978 13.8562 10.8317 13.8854 10.6952 13.9421C10.5587 13.9989 10.4348 14.082 10.3305 14.1867C10.2257 14.291 10.1426 14.4149 10.0859 14.5514C10.0292 14.6879 10 14.8342 10 14.982C10 15.1298 10.0292 15.2762 10.0859 15.4127C10.1426 15.5491 10.2257 15.6731 10.3305 15.7773L14.3742 19.8211L14.4399 19.8867C14.5385 19.9855 14.6556 20.0639 14.7846 20.1174C14.9136 20.1709 15.0518 20.1984 15.1914 20.1984C15.331 20.1984 15.4693 20.1709 15.5983 20.1174C15.7272 20.0639 15.8444 19.9855 15.943 19.8867L22.9274 12.9023C23.0262 12.8037 23.1046 12.6866 23.1581 12.5576C23.2116 12.4286 23.2391 12.2904 23.2391 12.1508C23.2391 12.0112 23.2116 11.8729 23.1581 11.744C23.1046 11.615 23.0262 11.4978 22.9274 11.3992L22.8399 11.3117C22.7412 11.2129 22.6241 11.1345 22.4951 11.081C22.3662 11.0275 22.2279 11 22.0883 11C21.9487 11 21.8104 11.0275 21.6815 11.081C21.5525 11.1345 21.4354 11.2129 21.3367 11.3117L15.1899 17.4555L11.9211 14.1867Z" fill="white"/>
</svg>
